<svg width="105" height="116" viewBox="0 0 105 116" fill="none" 
    xmlns="http://www.w3.org/2000/svg">
    <path d="M34.0312 115.445C27.1172 113.492 21.9023 110.27 18.3867 105.777C14.9102 101.324 13.1719 95.4258 13.1719 88.082V76.4219C13.1719 66.9297 9.03125 62.1836 0.75 62.1836V53.6875C9.03125 53.6875 13.1719 48.9609 13.1719 39.5078V27.3203C13.25 20.1719 14.9883 14.4102 18.3867 10.0352C21.8242 5.62109 27.0391 2.41797 34.0312 0.425781L36.2578 7.16406C28.0938 9.78125 24.0117 16.5977 24.0117 27.6133V39.4492C24.0117 48.3164 20.75 54.4883 14.2266 57.9648C20.75 61.4805 24.0117 67.7109 24.0117 76.6562V88.7266C24.1289 99.4688 28.2109 106.129 36.2578 108.707L34.0312 115.445Z" fill="#490F2F"/>
    <path d="M68.543 108.707C76.4727 106.168 80.5742 99.7031 80.8477 89.3125V76.4219C80.8477 67.3984 84.3828 61.2461 91.4531 57.9648C84.3828 54.7617 80.8477 48.6094 80.8477 39.5078V27.6133C80.8477 16.5977 76.7656 9.78125 68.6016 7.16406L70.8281 0.425781C77.7422 2.37891 82.9375 5.5625 86.4141 9.97656C89.8906 14.3516 91.6484 20.1523 91.6875 27.3789V39.6836C91.6875 49.0195 95.8281 53.6875 104.109 53.6875V62.1836C95.8281 62.1836 91.6875 66.9297 91.6875 76.4219V88.2578C91.6875 95.6016 89.9102 101.48 86.3555 105.895C82.8398 110.309 77.6641 113.492 70.8281 115.445L68.543 108.707Z" fill="#310A9E"/>
</svg>
