<svg width="860" height="506" viewBox="0 0 860 506" fill="none" 
    xmlns="http://www.w3.org/2000/svg">
    <path fill-rule="evenodd" clip-rule="evenodd" d="M688.89 92.6505C675.192 92.6505 670.21 76.3364 662.428 67.3837C656.86 60.9782 647.357 62.8882 644.544 53.9207C637.471 31.371 656.402 15.5 681.099 15.5C705.796 15.5 722.449 29.4193 726.044 50.3437C729.64 71.2682 713.587 92.6505 688.89 92.6505Z" fill="#191847"/>
    <path fill-rule="evenodd" clip-rule="evenodd" d="M673.386 89.7144C665.625 94.3681 657.999 96.6167 654.42 95.6988C645.444 93.397 644.618 60.7303 651.563 47.852C658.509 34.9737 694.213 29.3606 696.013 54.8765C696.637 63.7323 692.9 71.6355 687.377 78.0844L697.279 124H668.515L673.386 89.7144Z" fill="#B28B67"/>
    <path fill-rule="evenodd" clip-rule="evenodd" d="M694.143 36.9615C716.176 58.4231 694.059 81.234 687.999 81.234C687.608 78.1375 686.415 75.1254 684.666 72.2585C685.595 71.0621 686.145 69.5741 686.145 67.9615C686.145 64.0106 682.841 60.8077 678.766 60.8077C677.493 60.8077 676.296 61.1201 675.251 61.6702C666.417 54.176 655.339 48.9515 649.838 47.9242C640.27 46.1375 672.11 15.5 694.143 36.9615Z" fill="#191847"/>
    <path fill-rule="evenodd" clip-rule="evenodd" d="M706.827 222L661.795 368.188L639.981 492.511H622.877L645.927 222H706.827Z" fill="#997659"/>
    <path fill-rule="evenodd" clip-rule="evenodd" d="M722.937 222C719.878 302.265 723.477 343.667 724.162 350.959C724.847 358.252 734.221 405.536 756.412 494.959L738.187 488.743C703.115 406.729 691.164 364.105 687.141 353.336C683.119 342.567 672.435 298.788 655.091 222H722.937Z" fill="#B28B67"/>
    <path fill-rule="evenodd" clip-rule="evenodd" d="M753.357 487.149C754.423 486.673 755.69 487.148 756.096 488.241C756.976 490.61 758.283 494.487 758.283 496.619C758.283 499.834 757.205 506 757.205 506C753.45 506 689.711 506 689.711 506C689.711 506 687.08 497.363 692.748 496.675C698.416 495.986 702.166 495.431 702.166 495.431L733.725 481.46C734.238 481.233 734.838 481.473 735.053 481.991L737.146 487.033C737.146 487.033 742.394 489.465 745.674 489.465C747.799 489.465 751.214 488.106 753.357 487.149Z" fill="#E4E4E4"/>
    <path fill-rule="evenodd" clip-rule="evenodd" d="M640.871 487.149C641.936 486.673 643.203 487.148 643.609 488.241C644.489 490.61 645.797 494.487 645.797 496.619C645.797 499.834 644.718 506 644.718 506C640.963 506 577.224 506 577.224 506C577.224 506 574.593 497.363 580.261 496.675C585.93 495.986 589.679 495.431 589.679 495.431L621.238 481.46C621.751 481.233 622.351 481.473 622.566 481.991L624.66 487.033C624.66 487.033 629.907 489.465 633.188 489.465C635.312 489.465 638.728 488.106 640.871 487.149Z" fill="#E4E4E4"/>
    <path fill-rule="evenodd" clip-rule="evenodd" d="M712.81 222L693.663 296.481H635.182L643.902 222H712.81Z" fill="#69A1AC"/>
    <path fill-rule="evenodd" clip-rule="evenodd" d="M723.58 222C733.03 250.128 727.17 296.481 727.17 296.481H667.492L651.082 222H723.58Z" fill="#89C5CC"/>
    <path fill-rule="evenodd" clip-rule="evenodd" d="M567.327 236.235L601.298 203.28L612.581 222.694L577.256 243.405C568.398 257.28 563.196 263.275 561.649 261.39C560.345 259.801 560.943 258.059 561.493 256.455C561.922 255.205 562.322 254.038 561.773 253.092C560.517 250.932 553.425 252.169 546.745 253.629C540.065 255.09 541.611 251.827 543.03 250.124C549.344 245.057 557.443 240.428 567.327 236.235ZM767.566 284.115C764.051 277.026 752.084 207.927 752.084 207.927L727.023 208.025C727.023 208.025 750.234 282.534 752.084 287.093C754.487 293.016 750.405 301.62 747.637 307.455C747.209 308.357 746.812 309.194 746.476 309.944C750.316 311.653 752.161 309.587 754.106 307.409C756.303 304.949 758.628 302.347 764.1 304.878C766.214 305.856 768.215 307.013 770.169 308.143C776.921 312.045 783.123 315.63 791.561 310.453C792.898 309.632 794.364 306.542 790.823 304.127C781.999 298.111 769.284 287.581 767.566 284.115Z" fill="#B28B67"/>
    <path fill-rule="evenodd" clip-rule="evenodd" d="M680.866 103.359L670.496 101.59C652.643 145.94 621.472 186.237 576.985 222.482L610.602 263.095C655.084 211.487 682.502 158.241 680.866 103.359Z" fill="#191847"/>
    <path fill-rule="evenodd" clip-rule="evenodd" d="M726.07 232.947H633.73C633.73 232.947 665.82 155.359 665.82 101.127L693.674 97C715.565 132.01 721.747 175.115 726.07 232.947Z" fill="#DDE3E9"/>
    <path fill-rule="evenodd" clip-rule="evenodd" d="M768.043 272.299C757.944 159.006 694.286 97 694.286 97L694.264 97.0196C694.26 97.0131 694.257 97.0065 694.253 97H692.435C689.171 97.1118 682.494 97.4027 682.494 97.4027L675.763 116.53C674.695 151.51 663.29 257.519 663.29 257.519H723.732C723.629 262.38 723.401 267.309 723.036 272.299H768.043Z" fill="#2F3676"/>
    <path fill-rule="evenodd" clip-rule="evenodd" d="M723.722 257.989C724.204 236.823 722.316 216.948 719.166 198.962C717.518 220.304 714.074 245.985 706.883 257.989H723.722Z" fill="black" fill-opacity="0.1"/>
    <path fill-rule="evenodd" clip-rule="evenodd" d="M710.347 221.021L680.5 207.223V221.021H710.347Z" fill="white" fill-opacity="0.2"/>
    <path fill-rule="evenodd" clip-rule="evenodd" d="M187.614 89.7144C195.375 94.3681 203.001 96.6167 206.58 95.6988C215.556 93.397 216.382 60.7303 209.436 47.852C202.491 34.9737 166.787 29.3606 164.987 54.8765C164.363 63.7323 168.1 71.6355 173.623 78.0844L163.721 124H192.485L187.614 89.7144Z" fill="#B28B67"/>
    <path fill-rule="evenodd" clip-rule="evenodd" d="M198.075 33.8257C194.144 32.6334 188.438 32.2291 186.038 32.5026C187.404 29.2483 187.945 25.6226 187.504 22.0924C187.074 18.6621 185.534 15.7413 184.109 12.6806C183.452 11.2699 182.707 9.86682 181.597 8.78775C180.467 7.68841 179.036 6.96275 177.535 6.61655C175.999 6.26218 174.393 6.29168 172.855 6.61328C172.175 6.75553 171.564 7.06501 170.897 7.23706C170.214 7.41333 169.882 6.98783 169.386 6.56022C168.191 5.52989 166.439 5.02125 164.926 4.83922C163.23 4.63507 161.469 4.88967 159.851 5.44454C158.276 5.9847 156.763 6.86183 155.624 8.13966C155.117 8.70846 154.657 9.35588 154.358 10.0707C154.235 10.364 154.215 10.5378 153.921 10.6452C153.648 10.7447 153.33 10.7476 153.049 10.8423C150.334 11.7573 148.012 13.8447 146.748 16.5248C146.01 18.0884 145.661 20.8413 145.756 23.9268C145.852 27.0124 148.653 35.0635 151.272 38.0001C153.61 40.6213 157.047 42.3511 160.364 43.1083C158.162 45.6115 156.697 48.7397 155.613 51.921C154.436 55.3768 153.707 58.9675 153.438 62.6261C153.183 66.1021 153.159 69.778 153.978 73.1799C154.745 76.3612 156.383 78.9709 159.119 80.6266C160.372 81.385 161.721 81.9548 163.077 82.4755C164.413 82.9887 165.754 83.4876 167.154 83.7755C169.803 84.3203 172.856 84.2268 174.897 82.1288C175.632 81.3725 176.441 80.4221 176.978 79.4982C177.171 79.1659 177.287 78.9486 177.053 78.6239C176.772 78.2349 176.318 77.9368 175.957 77.6325C173.9 75.8976 172.626 73.5815 172.305 70.829C171.979 68.0362 172.734 64.4314 175.463 63.2126C178.832 61.7081 182.543 63.435 185.537 65.0448C186.81 60.5763 189.423 56.5529 193.52 54.5032C198.053 52.2356 203.254 51.9702 207.912 50.0246C209.126 49.5176 210.362 48.9421 211.255 47.909C211.629 47.4773 212.067 46.9172 212.216 46.3462C212.412 45.5962 211.926 44.9673 211.55 44.3825C209.558 41.282 202.005 35.018 198.075 33.8257Z" fill="#191847"/>
    <path fill-rule="evenodd" clip-rule="evenodd" d="M156.567 222L245.487 369.617L312.151 494.415H326.51L214.813 222L156.567 222Z" fill="#997659"/>
    <path fill-rule="evenodd" clip-rule="evenodd" d="M306.289 487.149C305.224 486.673 303.957 487.148 303.551 488.241C302.671 490.61 301.363 494.487 301.363 496.619C301.363 499.834 302.442 506 302.442 506C306.197 506 369.936 506 369.936 506C369.936 506 372.567 497.363 366.899 496.675C361.23 495.986 357.481 495.431 357.481 495.431L325.922 481.46C325.409 481.233 324.809 481.473 324.594 481.991L322.5 487.033C322.5 487.033 317.253 489.465 313.972 489.465C311.848 489.465 308.432 488.106 306.289 487.149Z" fill="#E4E4E4"/>
    <path fill-rule="evenodd" clip-rule="evenodd" d="M293.637 474.431L321.327 466.113C321.327 466.113 303.129 412.091 276.718 347.215C250.308 282.338 219.99 222 219.99 222H141.781C141.781 222 175.487 298.325 213.248 360.703C251.009 423.08 293.637 474.431 293.637 474.431Z" fill="#DB2721"/>
    <path fill-rule="evenodd" clip-rule="evenodd" d="M150.723 222C142.331 273.874 126.144 340.148 124.616 342.193C123.598 343.557 86.9358 355.756 14.6299 378.791L17.7316 391.364C103.956 379.01 149.389 369.426 154.031 362.61C160.993 352.388 195.756 271.626 209.22 222H150.723Z" fill="#B28B67"/>
    <path fill-rule="evenodd" clip-rule="evenodd" d="M40.0466 367.922L45.5099 388.172C110.001 393.789 149.516 389.73 164.055 375.997C178.594 362.263 195.165 310.931 213.766 222H139.189C127.403 294.823 120.815 332.763 119.422 335.82C118.03 338.877 91.5715 349.577 40.0466 367.922Z" fill="#FF4133"/>
    <path fill-rule="evenodd" clip-rule="evenodd" d="M20.1618 376.175C20.4514 375.037 19.7563 373.862 18.599 373.654C16.0961 373.205 12.0333 372.602 9.9219 372.972C6.73418 373.53 0.805818 375.656 0.805818 375.656C1.45787 379.328 12.5261 441.659 12.5261 441.659C12.5261 441.659 21.5484 442.732 21.2471 437.069C20.9458 431.406 20.8451 427.644 20.8451 427.644L29.2168 394.37C29.3546 393.822 29.0108 393.268 28.4581 393.148L23.0991 391.977C23.0991 391.977 19.7768 387.268 19.2071 384.06C18.8398 381.991 19.5856 378.438 20.1618 376.175Z" fill="#E4E4E4"/>
    <path fill-rule="evenodd" clip-rule="evenodd" d="M258.866 125.25L217.242 147.921L232.613 164.326L262.858 136.788C278.791 132.422 286.078 129.228 284.718 127.206C283.571 125.501 281.721 125.56 280.017 125.614C278.689 125.657 277.451 125.697 276.702 124.897C274.991 123.072 278.255 116.689 281.612 110.763C284.969 104.838 281.379 105.354 279.326 106.206C272.608 110.728 265.788 117.077 258.866 125.25ZM300.717 157.06L282.434 167.048L283.475 185.294C283.475 185.294 295.317 176.795 305.505 173.97C318.495 170.368 323.75 167.618 330.098 159.575C333.494 155.272 336.377 146.621 333.144 143.803C331.904 142.723 327.284 145.276 322.569 147.881C318.976 149.866 315.329 151.882 313.081 152.342C310.056 152.961 310.41 149.062 310.693 145.946C310.896 143.71 311.063 141.878 309.918 142.408C304.566 142.499 300.717 157.06 300.717 157.06Z" fill="#997659"/>
    <path fill-rule="evenodd" clip-rule="evenodd" d="M196.97 142.87C211.55 142.717 230.992 139.655 251.736 126.561L259.883 144.627C245.574 158.749 225.454 170.351 207.861 169.86C193.997 169.473 186.912 152.797 196.97 142.87Z" fill="#2026A2"/>
    <path fill-rule="evenodd" clip-rule="evenodd" d="M157.648 266.645C143.788 264.848 131.052 263.197 123.505 264.674C115.036 237.327 122.068 220.108 128.559 204.212C132.472 194.632 136.188 185.533 136.196 174.986C136.219 144.274 161.018 97 164.667 97H165.714H194.631H197.941C199.429 116.006 205.778 136.583 212.168 157.293C213.66 162.129 215.155 166.973 216.59 171.806C240.772 177.264 294.469 158.263 294.469 158.263C294.469 158.263 308.024 186.151 307.002 198.026C275.747 214.261 248.959 221.499 226.89 221.977C227.591 234.999 225.997 247.39 220.643 258.712C213.468 273.882 183.589 270.008 157.648 266.645Z" fill="#1F28CF"/>
</svg>
