<svg width="501" height="561" viewBox="0 0 501 561" fill="none" 
    xmlns="http://www.w3.org/2000/svg">
    <mask id="mask0" mask-type="alpha" maskUnits="userSpaceOnUse" x="0" y="0" width="337" height="515">
        <rect y="11.1329" width="319" height="504" transform="rotate(-2 0 11.1329)" fill="white"/>
    </mask>
    <g mask="url(#mask0)">
        <path fill-rule="evenodd" clip-rule="evenodd" d="M234.837 127.871C238.173 140.361 243.764 150.239 248.353 152.842C259.858 159.368 293.216 126.521 298.903 106.363C304.59 86.2055 273.522 45.0237 246.28 69.5359C236.825 78.0433 232.797 89.8939 232.049 102.015L176.186 139.518L205.717 168.035L234.837 127.871Z" fill="#B28B67"/>
        <path fill-rule="evenodd" clip-rule="evenodd" d="M314.443 97.3051C308.105 103.868 297.776 104.254 290.956 98.3368C286.142 95.8973 280.565 92.1335 274.937 87.3826C273.589 89.8057 271.753 92.2648 269.364 94.7392C267.254 96.9242 264.775 99.0082 262.058 100.932C262.225 98.4635 261.55 96.095 259.994 94.5924C255.641 90.389 249.158 91.039 245.492 94.8358C240.839 99.6544 240.258 105.83 244.055 110.036C233.614 113.519 223.445 113.915 218.385 109.029C208.775 99.7478 214.333 80.3172 227.656 66.5209C228.124 66.0362 228.598 65.564 229.079 65.1044C223.672 64.1922 217.836 64.2034 211.957 64.2148C199.465 64.2389 186.784 64.2633 177.637 55.4304C159.336 37.7576 187.667 -6.12427 213.235 18.5672C230.624 35.3592 236.732 46.151 240.488 57.0135C245.895 54.3243 251.435 53.0238 256.466 53.2384C257.827 53.135 259.504 53.3991 261.422 53.9945C262.627 54.3251 263.781 54.7622 264.875 55.308C270.896 57.9695 278.446 63.037 285.881 69.732C287.27 70.9822 288.602 72.2423 289.872 73.5022C296.429 66.754 307.223 66.5855 314.005 73.1353C320.8 79.6976 320.997 90.5188 314.443 97.3051Z" fill="#191847"/>
        <path fill-rule="evenodd" clip-rule="evenodd" d="M-26.1852 404.476C-26.1852 404.476 30.4218 434.117 74.0906 443.399C117.759 452.681 160.729 434.697 160.729 434.697C160.729 434.697 105.505 404.886 67.3914 396.784C29.2782 388.683 -26.1852 404.476 -26.1852 404.476Z" fill="#1F28CF"/>
        <path fill-rule="evenodd" clip-rule="evenodd" d="M105.385 466.971C105.122 466.307 104.93 465.604 104.817 464.863C102.47 449.529 49.1106 278.135 46.5028 248.318L143.225 268.877C145.207 291.547 146.102 431.355 144.559 458.883C148.628 503.687 146.465 645.531 147.878 655.69C149.365 666.377 126.935 672.413 124.136 659.069C119.683 637.835 110.657 579.783 108.526 545.055C106.528 512.498 105.459 483.363 105.385 466.971Z" fill="#997659"/>
        <path fill-rule="evenodd" clip-rule="evenodd" d="M22.2794 468.848C-19.1086 470.434 -166.591 457.856 -177.048 458.578C-187.806 459.32 -192.251 436.509 -178.753 434.642C-157.273 431.671 -98.7706 426.693 -64.0021 426.978C-36.0365 427.206 -10.6297 427.943 6.34644 428.82C14.7671 382.363 31.9546 270.233 41.2083 247.193L126.789 265.384C117.915 287.478 48.5439 447.705 38.7022 463.127C35.4376 468.686 28.9291 470.066 22.2794 468.848V468.848Z" fill="#B28B67"/>
        <path fill-rule="evenodd" clip-rule="evenodd" d="M41.4849 247.252C41.4849 247.252 101.497 243.079 148.533 270.006C148.879 325.955 172.818 353.22 160.399 436.247C97.5189 452.437 37.566 389.059 -26.8379 404.193C-35.3651 362.064 7.79735 274.145 41.4849 247.252Z" fill="#2B44FF"/>
        <path fill-rule="evenodd" clip-rule="evenodd" d="M238.809 389.301L223.882 323.32L195.238 337.878L221.338 390.201C221.109 413.75 222.655 424.994 225.976 423.931C228.776 423.035 229.42 420.478 230.013 418.123C230.475 416.289 230.906 414.576 232.302 413.867C235.489 412.247 243.008 419.243 249.859 426.186C256.711 433.13 257.408 428.009 257.038 424.86C253.438 413.869 247.362 402.016 238.809 389.301ZM-38.0768 291.268C-28.3419 285.481 39.8817 211.767 39.8817 211.767L69.7834 231.353C69.7834 231.353 -16.1106 302.833 -21.8803 306.872C-29.3754 312.12 -31.2052 325.628 -32.446 334.788C-32.638 336.205 -32.8158 337.518 -32.9984 338.68C-38.926 337.75 -39.5215 333.835 -40.1492 329.708C-40.8582 325.046 -41.6084 320.113 -50.1296 318.904C-53.4217 318.436 -56.7171 318.271 -59.9366 318.11C-71.0576 317.554 -81.274 317.042 -87.3282 304.268C-88.288 302.243 -87.6306 297.392 -81.5099 297.242C-66.2612 296.869 -42.8359 294.097 -38.0768 291.268Z" fill="#B28B67"/>
        <path fill-rule="evenodd" clip-rule="evenodd" d="M206.655 141.469L220.44 147.4C207.197 214.549 213.045 287.174 237.984 365.276L166.087 387.951C153.139 291.397 161.88 206.131 206.655 141.469Z" fill="#191847"/>
        <path fill-rule="evenodd" clip-rule="evenodd" d="M51.481 262.032L161.94 333.765C161.94 333.765 184.085 215.628 226.394 150.477L196.294 123.88C142.794 148.934 101.77 195.915 51.481 262.032Z" fill="#DDE3E9"/>
        <path fill-rule="evenodd" clip-rule="evenodd" d="M-29.4295 276.702C71.0376 148.443 195.562 123.405 195.562 123.405L195.573 123.446C195.583 123.441 195.592 123.436 195.602 123.431L197.777 124.843C201.593 127.513 209.355 133.05 209.355 133.05L202.484 161.257C176.471 204.109 107.41 340.323 107.41 340.323L35.1073 293.369C31.4383 299.288 27.8651 305.386 24.4096 311.666L-29.4295 276.702Z" fill="#2F3676"/>
        <path fill-rule="evenodd" clip-rule="evenodd" d="M34.7531 293.941C50.6894 268.138 68.4538 245.729 86.2539 226.569C71.5746 253.488 55.6587 287.014 54.8962 307.023L34.7531 293.941Z" fill="black" fill-opacity="0.1"/>
        <path fill-rule="evenodd" clip-rule="evenodd" d="M79.5925 259.92L126.062 266.53L115.297 283.107L79.5925 259.92Z" fill="white" fill-opacity="0.2"/>
    </g>
    <path fill-rule="evenodd" clip-rule="evenodd" d="M374.396 213.53C366.854 214.068 360.329 212.86 358.017 210.818C352.221 205.698 364.046 180.974 374.113 173.981C384.179 166.987 412.86 176.317 404.482 196.067C401.575 202.921 395.787 207.411 389.225 210.139L379.104 248.202L357.72 237.307L374.396 213.53Z" fill="#B28B67"/>
    <path fill-rule="evenodd" clip-rule="evenodd" d="M371.437 155.812C372.673 154.481 374.543 153.755 376.35 154.178C376.788 154.28 377.209 154.446 377.602 154.667C377.742 154.745 377.762 154.807 377.88 154.741C377.968 154.692 378.062 154.511 378.127 154.434C378.329 154.194 378.546 153.966 378.778 153.754C379.569 153.032 380.536 152.529 381.556 152.21C383.463 151.613 385.621 151.629 387.486 152.384C388.507 152.797 389.397 153.451 390.16 154.24C390.554 154.648 390.914 155.09 391.25 155.547C391.352 155.684 391.623 156.244 391.771 156.291C391.934 156.344 392.428 156.124 392.598 156.092C394.707 155.702 396.812 156.198 398.693 157.174C400.816 158.276 402.814 159.428 403.93 161.633C404.166 162.1 404.371 162.584 404.55 163.075C404.645 163.333 404.731 163.595 404.805 163.86C404.85 164.02 404.89 164.181 404.926 164.343C404.986 164.618 404.928 164.669 405.22 164.647C406.341 164.563 407.456 164.825 408.392 165.457C408.948 165.832 409.434 166.304 409.862 166.817C410.008 166.992 410.277 167.53 410.475 167.634C410.67 167.738 411.246 167.66 411.487 167.688C412.791 167.842 414.024 168.345 415.082 169.12C416.173 169.919 417.1 170.989 417.773 172.158C418.097 172.72 418.342 173.285 418.443 173.927C418.486 174.205 418.51 174.486 418.58 174.759C418.621 174.918 418.757 175.129 418.738 175.295C418.749 175.196 420.343 175.361 420.485 175.392C421.244 175.559 421.908 175.942 422.454 176.491C423.48 177.526 424.077 178.976 424.473 180.353C424.676 181.06 424.798 181.79 424.843 182.523C424.865 182.875 424.869 183.227 424.857 183.579C424.852 183.75 424.807 183.944 424.829 184.111C424.857 184.326 424.93 184.367 425.093 184.538C425.922 185.406 426.537 186.473 426.825 187.638C427.117 188.818 427.064 190.059 426.716 191.218C426.695 191.287 426.57 191.549 426.59 191.602C426.616 191.674 426.829 191.756 426.902 191.805C427.152 191.971 427.392 192.152 427.621 192.347C428.043 192.705 428.425 193.11 428.756 193.554C430.045 195.285 430.462 197.511 430.149 199.617C429.82 201.827 428.707 203.984 427.007 205.451C426.732 205.688 426.439 205.904 426.128 206.092C425.938 206.207 425.904 206.19 425.881 206.402C425.857 206.637 425.898 206.899 425.89 207.137C425.864 207.915 425.731 208.685 425.514 209.431C425.159 210.655 424.667 211.881 423.884 212.898C423.521 213.37 423.091 213.793 422.595 214.126C422.342 214.296 422.073 214.442 421.792 214.561C421.646 214.622 421.498 214.676 421.347 214.724C421.26 214.751 421.159 214.762 421.078 214.8C420.88 214.893 420.92 214.753 420.866 215.01C420.792 215.37 420.829 215.781 420.792 216.149C420.754 216.528 420.702 216.905 420.639 217.281C420.512 218.042 420.346 218.799 420.109 219.533C419.655 220.944 418.91 222.314 417.684 223.197C417.159 223.574 416.552 223.83 415.916 223.946C415.604 224.002 415.286 224.026 414.969 224.017C414.806 224.012 414.625 223.953 414.501 224.05C414.367 224.153 414.324 224.473 414.269 224.636C413.783 226.059 413.168 227.5 412.112 228.598C411.139 229.61 409.801 230.26 408.407 230.43C405.702 230.762 403.027 229.303 401.465 227.138C401.058 226.574 400.721 225.959 400.473 225.31C398.497 226.29 396.111 225.012 394.627 223.69C392.779 222.042 391.822 219.686 391.829 217.234C389.644 218.189 387.084 216.214 387.057 213.956C387.05 213.403 387.159 212.853 387.34 212.333C387.435 212.059 387.589 211.813 387.691 211.546C387.822 211.205 387.767 210.781 387.802 210.405C387.87 209.674 388.04 208.969 388.368 208.309C388.54 207.964 388.753 207.653 388.959 207.329C389.144 207.038 389.205 206.71 389.31 206.383C389.812 206.752 390.554 206.944 391.15 207.048C391.735 207.15 392.418 206.982 392.966 206.789C394.239 206.342 395.326 205.46 396.251 204.502C398.28 202.398 399.491 199.251 397.682 196.608C396.84 195.377 393.343 193.597 391.792 193.204C390.162 192.79 386.862 195.171 386.626 195.432C386.48 195.594 386.387 195.839 386.151 195.877C385.633 195.958 385.251 195.163 385.092 194.785C384.817 194.134 384.748 193.418 384.729 192.718C384.689 191.194 384.818 189.647 385.114 188.152C385.343 186.999 385.69 185.868 385.818 184.696C385.945 183.531 385.806 182.36 385.18 181.344C384.499 180.238 383.528 179.344 382.636 178.413C381.752 177.49 380.929 176.494 380.501 175.274C380.407 175.005 380.324 174.729 380.281 174.448C380.248 174.226 380.291 173.856 380.167 173.662C379.972 173.361 379.357 173.573 379.042 173.603C377.485 173.751 375.972 174.293 374.6 175.028C373.236 175.759 372.035 176.52 370.866 177.516C369.999 178.256 369.144 179.333 368.068 179.752C367.587 179.94 365.209 178.989 364.625 178.315C364.042 177.64 363.613 176.442 363.614 175.829C363.616 175.201 363.835 174.622 364.221 174.131C364.448 173.842 364.731 173.608 364.963 173.328C365.158 173.094 365.34 172.871 365.592 172.693C366.072 172.358 366.658 172.24 367.232 172.358C366.954 171.608 366.815 170.808 366.843 170.008C366.873 169.177 367.025 168.225 367.325 167.45C367.569 166.82 367.98 166.247 368.57 165.9C369.189 165.535 369.977 165.493 370.676 165.425C370.192 164.385 369.893 163.268 369.759 162.131C369.497 159.92 369.875 157.493 371.437 155.812Z" fill="#191847"/>
    <path fill-rule="evenodd" clip-rule="evenodd" d="M360 322L310.918 446.227L277.999 551.25H265L315.326 322L360 322Z" fill="#997659"/>
    <path fill-rule="evenodd" clip-rule="evenodd" d="M369.883 322C370.406 365.654 378.028 424.427 379.246 427.149C380.464 429.87 463.324 496.358 463.324 496.358L454.371 505.939C454.371 505.939 356.603 448.934 352.079 441.331C347.555 433.728 332.826 363.763 321 322H369.883Z" fill="#B28B67"/>
    <path fill-rule="evenodd" clip-rule="evenodd" d="M461.884 494.564C462.211 493.44 463.396 492.771 464.496 493.173C466.502 493.906 469.436 495.092 470.736 496.183C472.808 497.922 476.204 501.948 476.204 501.948C474.187 504.352 439.949 545.154 439.949 545.154C439.949 545.154 432.968 542.166 435.569 538.165C438.17 534.164 439.826 531.464 439.826 531.464L447.724 503.87C447.879 503.328 448.451 503.022 448.988 503.192L453.202 504.528C453.202 504.528 457.588 502.484 459.35 500.384C460.423 499.106 461.335 496.448 461.884 494.564Z" fill="#E4E4E4"/>
    <path fill-rule="evenodd" clip-rule="evenodd" d="M280.55 545.284C281.622 544.812 282.896 545.29 283.295 546.391C284.023 548.398 285 551.409 285 553.106C285 555.811 284.099 561 284.099 561C280.961 561 227.697 561 227.697 561C227.697 561 225.498 553.732 230.235 553.152C234.972 552.573 238.105 552.106 238.105 552.106L264.32 540.419C264.835 540.189 265.437 540.43 265.652 540.951L267.337 545.039C267.337 545.039 271.722 547.085 274.463 547.085C276.132 547.085 278.754 546.074 280.55 545.284Z" fill="#E4E4E4"/>
    <path fill-rule="evenodd" clip-rule="evenodd" d="M327 540.433L265.196 533.725L311 322H366.356L327 540.433Z" fill="#69A1AC"/>
    <path fill-rule="evenodd" clip-rule="evenodd" d="M450.54 480.9L410 528.886C410 528.886 345.95 458.932 335.317 437.596C324.685 416.26 316.201 322 316.201 322H378.522C378.522 322 383.156 404.926 384.769 408.785C386.383 412.644 450.54 480.9 450.54 480.9Z" fill="#89C5CC"/>
    <path fill-rule="evenodd" clip-rule="evenodd" d="M258.325 258.141L289.634 282.347L274.821 293.93L253.524 267.176C240.974 261.481 235.392 257.885 236.777 256.388C237.945 255.125 239.461 255.416 240.857 255.683C241.945 255.891 242.96 256.086 243.682 255.521C245.33 254.233 243.48 248.52 241.492 243.175C239.504 237.829 242.393 238.725 243.972 239.698C248.912 244.32 253.696 250.468 258.325 258.141ZM409.847 321.027L430.714 322.039C435.337 360.943 438.52 382.423 440.263 386.482C441.541 389.458 451.665 398.826 458.747 404.247C461.589 406.422 460.234 408.945 459.084 409.573C451.833 413.538 446.827 410.267 441.378 406.705C439.8 405.674 438.185 404.619 436.468 403.708C432.023 401.35 429.974 403.427 428.037 405.39C426.323 407.128 424.696 408.776 421.574 407.178C421.887 406.565 422.254 405.883 422.65 405.146C425.21 400.383 428.985 393.36 427.244 388.298C426.351 385.7 420.552 363.277 409.847 321.027Z" fill="#B28B67"/>
    <path fill-rule="evenodd" clip-rule="evenodd" d="M375.338 229.217L367.306 225.686C344.611 238.857 326.535 279.587 312.95 282.188C300.107 284.647 285.07 275.42 267.404 263.618L258.152 275.412C271.026 298.88 304.565 324.357 322.081 318.954C350.087 310.315 368.802 259.188 375.338 229.217Z" fill="#DB2721"/>
    <path fill-rule="evenodd" clip-rule="evenodd" d="M385.624 343.777C385.624 343.777 335.161 331.195 311.385 325.267C307.993 324.421 309.853 319.682 310.96 317.332C323.732 290.216 353.492 264.974 363.617 224.366L385.868 226.347C396.477 259.25 393.858 295.85 385.624 343.777Z" fill="#DDE3E9"/>
    <path fill-rule="evenodd" clip-rule="evenodd" d="M387.005 226.631L387.249 226.692C427.901 268.266 445.488 321.385 440.013 386.049L423.692 385.217C416.378 370.638 408.557 347.812 400.229 316.74C400.773 334.342 399.957 352.053 397.038 368.265L330.212 351.604C325.426 315.684 378.77 224.578 378.77 224.578L383.384 225.728L387.005 226.631Z" fill="#FF4133"/>
</svg>
