<svg width="2850" height="1008" viewBox="0 0 2850 1008" fill="none" 
    xmlns="http://www.w3.org/2000/svg">
    <g filter="url(#filter0_d)">
        <rect x="1031.81" y="857.46" width="968.834" height="660.66" rx="25" transform="rotate(-179.597 1031.81 857.46)" fill="#C4C4C4" fill-opacity="0.5"/>
        <rect x="1037.77" y="863.503" width="980.834" height="672.66" rx="31" transform="rotate(-179.597 1037.77 863.503)" stroke="#0C0B0B" stroke-width="12"/>
    </g>
    <path d="M1327.2 61.8113H2637.14V898.641H1327.2V61.8113Z" fill="url(#paint0_linear)"/>
    <path d="M1446.04 1008C1255.73 1007.16 1145.73 1003.02 1115.23 992.151C1112 990.17 1112 987.184 1112 984.226H2850C2849.9 987.234 2850 989.863 2843.54 992.151C2812.94 1003 2706.09 1007.16 2515.95 1008H1446.04Z" fill="#828282"/>
    <mask id="path-5-inside-1" fill="white">
        <path fill-rule="evenodd" clip-rule="evenodd" d="M1294.08 0C1285.24 0 1278.08 7.16342 1278.08 16V965.962C1278.08 968.171 1279.87 969.962 1282.08 969.962H2682.26C2684.47 969.962 2686.26 968.171 2686.26 965.962V16C2686.26 7.16344 2679.09 0 2670.26 0H1294.08ZM2637.81 65.5381H1329.76V897.871H2637.81V65.5381Z"/>
    </mask>
    <path fill-rule="evenodd" clip-rule="evenodd" d="M1294.08 0C1285.24 0 1278.08 7.16342 1278.08 16V965.962C1278.08 968.171 1279.87 969.962 1282.08 969.962H2682.26C2684.47 969.962 2686.26 968.171 2686.26 965.962V16C2686.26 7.16344 2679.09 0 2670.26 0H1294.08ZM2637.81 65.5381H1329.76V897.871H2637.81V65.5381Z" fill="black"/>
    <path d="M1329.76 65.5381V64.5381H1328.76V65.5381H1329.76ZM2637.81 65.5381H2638.81V64.5381H2637.81V65.5381ZM1329.76 897.871H1328.76V898.871H1329.76V897.871ZM2637.81 897.871V898.871H2638.81V897.871H2637.81ZM1279.08 16C1279.08 7.71571 1285.8 1 1294.08 1V-1C1284.69 -1 1277.08 6.61114 1277.08 16H1279.08ZM1279.08 965.962V16H1277.08V965.962H1279.08ZM1282.08 968.962C1280.42 968.962 1279.08 967.619 1279.08 965.962H1277.08C1277.08 968.724 1279.32 970.962 1282.08 970.962V968.962ZM2682.26 968.962H1282.08V970.962H2682.26V968.962ZM2685.26 965.962C2685.26 967.619 2683.92 968.962 2682.26 968.962V970.962C2685.02 970.962 2687.26 968.724 2687.26 965.962H2685.26ZM2685.26 16V965.962H2687.26V16H2685.26ZM2670.26 1C2678.54 1 2685.26 7.71573 2685.26 16H2687.26C2687.26 6.61116 2679.65 -1 2670.26 -1V1ZM1294.08 1H2670.26V-1H1294.08V1ZM1329.76 66.5381H2637.81V64.5381H1329.76V66.5381ZM1330.76 897.871V65.5381H1328.76V897.871H1330.76ZM2637.81 896.871H1329.76V898.871H2637.81V896.871ZM2636.81 65.5381V897.871H2638.81V65.5381H2636.81Z" fill="#828282" mask="url(#path-5-inside-1)"/>
    <rect x="1112" y="967.585" width="1738" height="16.6415" fill="#C4C4C4"/>
    <path d="M1816.09 967.585H2148.25V971.472C2148.25 975.89 2144.67 979.472 2140.25 979.472H1824.09C1819.67 979.472 1816.09 975.89 1816.09 971.472V967.585Z" fill="#828282"/>
    <path d="M1329.54 103.644H2644.15V888.264C2644.15 891.064 2644.15 892.465 2643.61 893.534C2643.13 894.475 2642.36 895.24 2641.42 895.719C2640.35 896.264 2638.95 896.264 2636.15 896.264H1337.54C1334.74 896.264 1333.34 896.264 1332.27 895.719C1331.33 895.24 1330.57 894.475 1330.09 893.534C1329.54 892.465 1329.54 891.064 1329.54 888.264V103.644Z" fill="#2F3235"/>
    <path d="M1330.57 68.2113C1330.57 65.9711 1330.57 64.851 1331 63.9954C1331.39 63.2427 1332 62.6308 1332.75 62.2473C1333.61 61.8113 1334.73 61.8113 1336.97 61.8113H2637.75C2639.99 61.8113 2641.11 61.8113 2641.97 62.2473C2642.72 62.6308 2643.33 63.2427 2643.72 63.9954C2644.15 64.851 2644.15 65.9711 2644.15 68.2113V102.543H1330.57V68.2113Z" fill="url(#paint1_linear)"/>
    <rect opacity="0.95" x="1330.57" y="102.543" width="1312.56" height="1.10086" fill="black"/>
    <rect opacity="0.9" x="2618.48" y="75.0216" width="24.649" height="27.5215" fill="url(#paint2_linear)"/>
    <path d="M2618.48 75.0216V102.543H2619.5V76.1225H2643.13V75.0216H2618.48Z" fill="#56585A"/>
    <rect x="2630.8" y="83.8285" width="1.02522" height="12.1095" fill="#929393"/>
    <rect x="2625.67" y="90.4337" width="1.10086" height="11.2974" transform="rotate(-90 2625.67 90.4337)" fill="#929393"/>
    <g filter="url(#filter1_i)">
        <rect x="2572.26" y="70.6182" width="38.0005" height="24.2189" rx="3" fill="url(#paint3_linear)"/>
    </g>
    <rect x="2586.11" y="79.9251" width="8.24336" height="8.90775" rx="0.5" stroke="#E9E9EA"/>
    <path d="M2589.72 76.7233H2589.39C2589.42 76.7058 2589.44 76.6903 2589.47 76.677C2589.49 76.6644 2589.54 76.6455 2589.68 76.6344C2589.82 76.6229 2590.01 76.6225 2590.29 76.6225H2596.34C2596.63 76.6225 2596.81 76.6229 2596.95 76.6344C2597.09 76.6455 2597.14 76.6644 2597.16 76.677C2597.19 76.6903 2597.21 76.7058 2597.24 76.7233H2596.91H2589.72ZM2589.21 77.1064C2589.21 77.0553 2589.21 77.0163 2589.22 76.9862V77.2233V77.8242H2589.19V77.7225C2589.19 77.4342 2589.19 77.2481 2589.21 77.1064ZM2596.95 85.5183C2596.82 85.5292 2596.65 85.5302 2596.38 85.5302V85.4294H2596.91H2597.24C2597.21 85.4469 2597.19 85.4624 2597.16 85.4757C2597.14 85.4883 2597.09 85.5072 2596.95 85.5183ZM2597.42 85.0463C2597.42 85.0974 2597.42 85.1365 2597.41 85.1666V84.9294V77.2233V76.9862C2597.42 77.0163 2597.42 77.0553 2597.42 77.1064C2597.44 77.2481 2597.44 77.4342 2597.44 77.7225V84.4302C2597.44 84.7185 2597.44 84.9047 2597.42 85.0463Z" stroke="#E9E9EA"/>
    <g filter="url(#filter2_i)">
        <rect x="2526.04" y="70.6182" width="38.0005" height="24.2189" rx="3" fill="url(#paint4_linear)"/>
    </g>
    <path d="M2540.42 89.3328H2549.67C2549.67 89.3328 2549.67 80.524 2549.67 80.524L2546.58 80.5259V79.4251H2549.66C2550.24 79.4251 2550.69 79.9157 2550.69 80.5209V89.3379C2550.69 89.9321 2550.23 90.4337 2549.67 90.4337H2540.42C2539.85 90.4337 2539.4 89.9431 2539.4 89.3379V80.5209C2539.4 79.9267 2539.86 79.4251 2540.43 79.4251H2543.5V80.5259H2540.43C2540.43 80.5259 2540.42 89.3328 2540.42 89.3328Z" fill="#8B8D8F"/>
    <path d="M2545.03 75.3995L2542.42 78.2304C2542.23 78.4345 2541.93 78.4345 2541.74 78.2304C2541.55 78.0262 2541.55 77.6951 2541.74 77.4909L2544.69 74.2904C2544.88 74.0862 2545.18 74.0862 2545.37 74.2904L2548.32 77.4909C2548.51 77.6951 2548.51 78.0262 2548.32 78.2304C2548.13 78.4345 2547.83 78.4345 2547.64 78.2304L2545.03 75.3995Z" fill="#8B8D8F"/>
    <path d="M2544.53 75.0216H2545.56V84.9293H2544.53V75.0216Z" fill="#8B8D8F"/>
    <g filter="url(#filter3_i)">
        <rect x="1472.3" y="70.6182" width="38.0005" height="24.2189" rx="3" fill="url(#paint5_linear)"/>
    </g>
    <path fill-rule="evenodd" clip-rule="evenodd" d="M1485.65 79.4251V78.3242H1487.72V79.4251H1485.65ZM1485.65 81.6268V80.5259H1487.76V81.6268H1485.65ZM1485.65 82.7276V83.8285H1487.76V82.7276H1485.65Z" fill="#BBBEC0"/>
    <path fill-rule="evenodd" clip-rule="evenodd" d="M1489.76 76.1225H1497.97C1498.54 76.1225 1499 76.6166 1499 77.2261V88.2292C1499 88.8311 1498.54 89.3328 1497.97 89.3328H1489.76H1488.73H1484.63C1484.06 89.3328 1483.6 88.8387 1483.6 88.2292V77.2261C1483.6 76.6242 1484.06 76.1225 1484.63 76.1225H1488.73H1489.76ZM1488.73 77.2238C1486.44 77.2236 1484.63 77.2234 1484.63 77.2234C1484.63 77.2234 1484.62 88.2293 1484.62 88.2293C1484.62 88.2298 1486.44 88.2303 1488.73 88.2307V77.2238ZM1489.76 88.2309V77.224C1493.52 77.2245 1497.98 77.2253 1497.98 77.2261C1497.98 77.2261 1497.97 88.232 1497.97 88.232C1497.97 88.232 1493.52 88.2316 1489.76 88.2309Z" fill="#E9E9EA"/>
    <path fill-rule="evenodd" clip-rule="evenodd" d="M1390.14 89.3328C1393.54 89.3328 1396.3 86.3756 1396.3 82.7277C1396.3 79.0797 1393.54 76.1225 1390.14 76.1225C1386.73 76.1225 1383.98 79.0797 1383.98 82.7277C1383.98 86.3756 1386.73 89.3328 1390.14 89.3328Z" fill="#53C22B"/>
    <path fill-rule="evenodd" clip-rule="evenodd" d="M1369.6 89.3328C1373 89.3328 1375.76 86.3756 1375.76 82.7277C1375.76 79.0797 1373 76.1225 1369.6 76.1225C1366.19 76.1225 1363.43 79.0797 1363.43 82.7277C1363.43 86.3756 1366.19 89.3328 1369.6 89.3328Z" fill="#E6C02A"/>
    <path fill-rule="evenodd" clip-rule="evenodd" d="M1349.06 89.3328C1352.46 89.3328 1355.22 86.3756 1355.22 82.7277C1355.22 79.0797 1352.46 76.1225 1349.06 76.1225C1345.65 76.1225 1342.89 79.0797 1342.89 82.7277C1342.89 86.3756 1345.65 89.3328 1349.06 89.3328Z" fill="#FF5A52"/>
    <g filter="url(#filter4_i)">
        <rect x="1436.35" y="70.6182" width="25.676" height="24.2189" rx="3" fill="url(#paint6_linear)"/>
    </g>
    <path d="M1446.18 87.1657C1445.85 87.5436 1445.85 88.1122 1446.18 88.4901C1446.58 88.9382 1447.28 88.9382 1447.68 88.4901L1452.74 82.7792C1452.77 82.7498 1452.77 82.7055 1452.74 82.6762L1447.68 76.9652C1447.28 76.5171 1446.58 76.5171 1446.18 76.9652C1445.85 77.3431 1445.85 77.9117 1446.18 78.2896L1450.12 82.7277L1446.18 87.1657Z" fill="#75787A"/>
    <g filter="url(#filter5_i)">
        <path d="M1409.65 75.4182C1409.65 73.738 1409.65 72.8979 1409.98 72.2562C1410.27 71.6917 1410.73 71.2328 1411.29 70.9451C1411.93 70.6182 1412.77 70.6182 1414.45 70.6182H1430.53C1432.21 70.6182 1433.05 70.6182 1433.69 70.9451C1434.25 71.2328 1434.71 71.6917 1435 72.2562C1435.33 72.8979 1435.33 73.738 1435.33 75.4182V90.0371C1435.33 91.7173 1435.33 92.5574 1435 93.1991C1434.71 93.7636 1434.25 94.2225 1433.69 94.5101C1433.05 94.8371 1432.21 94.8371 1430.53 94.8371H1414.45C1412.77 94.8371 1411.93 94.8371 1411.29 94.5101C1410.73 94.2225 1410.27 93.7636 1409.98 93.1991C1409.65 92.5574 1409.65 91.7173 1409.65 90.0371V75.4182Z" fill="url(#paint7_linear)"/>
    </g>
    <path d="M1425.5 87.1657C1425.83 87.5436 1425.83 88.1122 1425.5 88.4901C1425.1 88.9382 1424.4 88.9382 1424 88.4901L1418.94 82.7792C1418.91 82.7498 1418.91 82.7055 1418.94 82.6762L1424 76.9652C1424.4 76.5171 1425.1 76.5171 1425.5 76.9652C1425.83 77.3431 1425.83 77.9117 1425.5 78.2896L1421.56 82.7277L1425.5 87.1657Z" fill="#E9E9EA"/>
    <rect x="1329.04" y="61.3113" width="1315.61" height="835.453" rx="5.5" stroke="url(#paint8_linear)"/>
    <rect x="1330.04" y="62.3113" width="1313.61" height="833.453" rx="4.5" stroke="url(#paint9_linear)"/>
    <rect x="1329.54" y="102.543" width="1.02522" height="1.10086" fill="#333333"/>
    <rect x="2643.13" y="102.543" width="1.02522" height="1.10086" fill="#333333"/>
    <rect x="2643.13" y="75.0216" width="1.02522" height="1.10086" fill="#757779"/>
    <rect x="2643.13" y="76.1225" width="1.02522" height="26.4207" fill="url(#paint10_linear)"/>
    <defs>
        <filter id="filter0_d" x="0.915894" y="131.916" width="1097.63" height="791.629" filterUnits="userSpaceOnUse" color-interpolation-filters="sRGB">
            <feFlood flood-opacity="0" result="BackgroundImageFix"/>
            <feColorMatrix in="SourceAlpha" type="matrix" values="0 0 0 0 0 0 0 0 0 0 0 0 0 0 0 0 0 0 127 0"/>
            <feOffset dy="4"/>
            <feGaussianBlur stdDeviation="25"/>
            <feColorMatrix type="matrix" values="0 0 0 0 0 0 0 0 0 0 0 0 0 0 0 0 0 0 0.75 0"/>
            <feBlend mode="normal" in2="BackgroundImageFix" result="effect1_dropShadow"/>
            <feBlend mode="normal" in="SourceGraphic" in2="effect1_dropShadow" result="shape"/>
        </filter>
        <filter id="filter1_i" x="2572.26" y="70.6182" width="38.0005" height="24.2189" filterUnits="userSpaceOnUse" color-interpolation-filters="sRGB">
            <feFlood flood-opacity="0" result="BackgroundImageFix"/>
            <feBlend mode="normal" in="SourceGraphic" in2="BackgroundImageFix" result="shape"/>
            <feColorMatrix in="SourceAlpha" type="matrix" values="0 0 0 0 0 0 0 0 0 0 0 0 0 0 0 0 0 0 127 0" result="hardAlpha"/>
            <feOffset dy="1"/>
            <feComposite in2="hardAlpha" operator="arithmetic" k2="-1" k3="1"/>
            <feColorMatrix type="matrix" values="0 0 0 0 0.458824 0 0 0 0 0.470588 0 0 0 0 0.478431 0 0 0 1 0"/>
            <feBlend mode="normal" in2="shape" result="effect1_innerShadow"/>
        </filter>
        <filter id="filter2_i" x="2526.04" y="70.6182" width="38.0005" height="24.2189" filterUnits="userSpaceOnUse" color-interpolation-filters="sRGB">
            <feFlood flood-opacity="0" result="BackgroundImageFix"/>
            <feBlend mode="normal" in="SourceGraphic" in2="BackgroundImageFix" result="shape"/>
            <feColorMatrix in="SourceAlpha" type="matrix" values="0 0 0 0 0 0 0 0 0 0 0 0 0 0 0 0 0 0 127 0" result="hardAlpha"/>
            <feOffset dy="1"/>
            <feComposite in2="hardAlpha" operator="arithmetic" k2="-1" k3="1"/>
            <feColorMatrix type="matrix" values="0 0 0 0 0.458824 0 0 0 0 0.470588 0 0 0 0 0.478431 0 0 0 1 0"/>
            <feBlend mode="normal" in2="shape" result="effect1_innerShadow"/>
        </filter>
        <filter id="filter3_i" x="1472.3" y="70.6182" width="38.0005" height="24.2189" filterUnits="userSpaceOnUse" color-interpolation-filters="sRGB">
            <feFlood flood-opacity="0" result="BackgroundImageFix"/>
            <feBlend mode="normal" in="SourceGraphic" in2="BackgroundImageFix" result="shape"/>
            <feColorMatrix in="SourceAlpha" type="matrix" values="0 0 0 0 0 0 0 0 0 0 0 0 0 0 0 0 0 0 127 0" result="hardAlpha"/>
            <feOffset dy="1"/>
            <feComposite in2="hardAlpha" operator="arithmetic" k2="-1" k3="1"/>
            <feColorMatrix type="matrix" values="0 0 0 0 0.458824 0 0 0 0 0.470588 0 0 0 0 0.478431 0 0 0 1 0"/>
            <feBlend mode="normal" in2="shape" result="effect1_innerShadow"/>
        </filter>
        <filter id="filter4_i" x="1436.35" y="70.6182" width="25.676" height="24.2189" filterUnits="userSpaceOnUse" color-interpolation-filters="sRGB">
            <feFlood flood-opacity="0" result="BackgroundImageFix"/>
            <feBlend mode="normal" in="SourceGraphic" in2="BackgroundImageFix" result="shape"/>
            <feColorMatrix in="SourceAlpha" type="matrix" values="0 0 0 0 0 0 0 0 0 0 0 0 0 0 0 0 0 0 127 0" result="hardAlpha"/>
            <feOffset dy="1"/>
            <feComposite in2="hardAlpha" operator="arithmetic" k2="-1" k3="1"/>
            <feColorMatrix type="matrix" values="0 0 0 0 0.458824 0 0 0 0 0.470588 0 0 0 0 0.478431 0 0 0 1 0"/>
            <feBlend mode="normal" in2="shape" result="effect1_innerShadow"/>
        </filter>
        <filter id="filter5_i" x="1409.65" y="70.6182" width="25.676" height="24.2189" filterUnits="userSpaceOnUse" color-interpolation-filters="sRGB">
            <feFlood flood-opacity="0" result="BackgroundImageFix"/>
            <feBlend mode="normal" in="SourceGraphic" in2="BackgroundImageFix" result="shape"/>
            <feColorMatrix in="SourceAlpha" type="matrix" values="0 0 0 0 0 0 0 0 0 0 0 0 0 0 0 0 0 0 127 0" result="hardAlpha"/>
            <feOffset dy="1"/>
            <feComposite in2="hardAlpha" operator="arithmetic" k2="-1" k3="1"/>
            <feColorMatrix type="matrix" values="0 0 0 0 0.458824 0 0 0 0 0.470588 0 0 0 0 0.478431 0 0 0 1 0"/>
            <feBlend mode="normal" in2="shape" result="effect1_innerShadow"/>
        </filter>
        <linearGradient id="paint0_linear" x1="1982.17" y1="61.8113" x2="1982.17" y2="898.641" gradientUnits="userSpaceOnUse">
            <stop stop-color="#7C8083"/>
            <stop offset="1" stop-color="#A9ADB0"/>
        </linearGradient>
        <linearGradient id="paint1_linear" x1="1987.36" y1="61.8113" x2="1987.36" y2="102.543" gradientUnits="userSpaceOnUse">
            <stop stop-color="#3A3E3F"/>
            <stop offset="1" stop-color="#2F3234"/>
        </linearGradient>
        <linearGradient id="paint2_linear" x1="2618.48" y1="75.0216" x2="2618.48" y2="102.543" gradientUnits="userSpaceOnUse">
            <stop stop-color="#28292A"/>
            <stop offset="1" stop-color="#252526"/>
        </linearGradient>
        <linearGradient id="paint3_linear" x1="2572.26" y1="70.6182" x2="2572.26" y2="94.8371" gradientUnits="userSpaceOnUse">
            <stop stop-color="#65686A"/>
            <stop offset="1" stop-color="#5F6263"/>
        </linearGradient>
        <linearGradient id="paint4_linear" x1="2526.04" y1="70.6182" x2="2526.04" y2="94.8371" gradientUnits="userSpaceOnUse">
            <stop stop-color="#65686A"/>
            <stop offset="1" stop-color="#5F6263"/>
        </linearGradient>
        <linearGradient id="paint5_linear" x1="1472.3" y1="70.6182" x2="1472.3" y2="94.8371" gradientUnits="userSpaceOnUse">
            <stop stop-color="#65686A"/>
            <stop offset="1" stop-color="#5F6263"/>
        </linearGradient>
        <linearGradient id="paint6_linear" x1="1436.35" y1="70.6182" x2="1436.35" y2="94.8371" gradientUnits="userSpaceOnUse">
            <stop stop-color="#65686A"/>
            <stop offset="1" stop-color="#5F6263"/>
        </linearGradient>
        <linearGradient id="paint7_linear" x1="1409.65" y1="70.6182" x2="1409.65" y2="94.8371" gradientUnits="userSpaceOnUse">
            <stop stop-color="#65686A"/>
            <stop offset="1" stop-color="#5F6263"/>
        </linearGradient>
        <linearGradient id="paint8_linear" x1="1986.85" y1="60.709" x2="1986.85" y2="897.366" gradientUnits="userSpaceOnUse">
            <stop stop-color="#141414"/>
        </linearGradient>
        <linearGradient id="paint9_linear" x1="1986.85" y1="61.8113" x2="1986.85" y2="896.264" gradientUnits="userSpaceOnUse">
            <stop stop-color="#808383"/>
            <stop offset="1" stop-color="#585B5D"/>
        </linearGradient>
        <linearGradient id="paint10_linear" x1="2643.64" y1="76.1225" x2="2643.64" y2="102.543" gradientUnits="userSpaceOnUse">
            <stop stop-color="#525354"/>
            <stop offset="1" stop-color="#4E4F50"/>
        </linearGradient>
    </defs>
</svg>
